<?xml version="1.0" encoding="UTF-8" standalone="no"?>
<!DOCTYPE svg PUBLIC "-//W3C//DTD SVG 1.0//EN" "http://www.w3.org/TR/2001/PR-SVG-20010719/DTD/svg10.dtd">
<svg width="31cm" height="12cm" viewBox="401 195 613 233" xmlns="http://www.w3.org/2000/svg" xmlns:xlink="http://www.w3.org/1999/xlink">
  <g>
    <rect style="fill: #ffffff" x="521" y="292" width="58.8" height="36"/>
    <rect style="fill: none; fill-opacity:0; stroke-width: 2; stroke: #000000" x="521" y="292" width="58.8" height="36"/>
    <text font-size="12.8" style="fill: #000000;text-anchor:middle;font-family:monospace;font-style:normal;font-weight:normal" x="550.4" y="313.2">User</text>
  </g>
  <g>
    <rect style="fill: #ffffff" x="776" y="291" width="66.5" height="36"/>
    <rect style="fill: none; fill-opacity:0; stroke-width: 2; stroke: #000000" x="776" y="291" width="66.5" height="36"/>
    <text font-size="12.8" style="fill: #000000;text-anchor:middle;font-family:monospace;font-style:normal;font-weight:normal" x="809.25" y="312.2">check</text>
  </g>
  <g>
    <polygon style="fill: #ffffff" points="642,310.24 677.4,289 712.8,310.24 677.4,331.48 "/>
    <polygon style="fill: none; fill-opacity:0; stroke-width: 2; stroke: #000000" points="642,310.24 677.4,289 712.8,310.24 677.4,331.48 "/>
    <text font-size="12.8" style="fill: #000000;text-anchor:end;font-family:monospace;font-style:normal;font-weight:normal" x="636" y="304.24">1</text>
    <text font-size="12.8" style="fill: #000000;text-anchor:start;font-family:monospace;font-style:normal;font-weight:normal" x="718.8" y="304.24">m</text>
    <text font-size="12.8" style="fill: #000000;text-anchor:middle;font-family:monospace;font-style:normal;font-weight:normal" x="677.4" y="313.44">does</text>
  </g>
  <polyline style="fill: none; fill-opacity:0; stroke-width: 2; stroke: #000000" points="580.807,310 611.001,310 611.001,310.24 641.195,310.24 "/>
  <polyline style="fill: none; fill-opacity:0; stroke-width: 2; stroke: #000000" points="713.605,310.24 744.298,310.24 744.298,309 774.992,309 "/>
  <g>
    <ellipse style="fill: #ffffff" cx="442.25" cy="297" rx="39.25" ry="18"/>
    <ellipse style="fill: none; fill-opacity:0; stroke-width: 2; stroke: #000000" cx="442.25" cy="297" rx="39.25" ry="18"/>
    <text font-size="12.8" style="fill: #000000;text-anchor:middle;font-family:monospace;font-style:normal;font-weight:normal" x="442.25" y="300.2">email</text>
  </g>
  <g>
    <ellipse style="fill: #ffffff" cx="502.8" cy="249" rx="50.8" ry="18"/>
    <ellipse style="fill: none; fill-opacity:0; stroke-width: 2; stroke: #000000" cx="502.8" cy="249" rx="50.8" ry="18"/>
    <text font-size="12.8" style="fill: #000000;text-anchor:middle;font-family:monospace;font-style:normal;font-weight:normal" x="502.8" y="252.2">password</text>
  </g>
  <g>
    <ellipse style="fill: #ffffff" cx="464.7" cy="340" rx="27.7" ry="18"/>
    <ellipse style="fill: none; fill-opacity:0; stroke-width: 2; stroke: #000000" cx="464.7" cy="340" rx="27.7" ry="18"/>
    <text font-size="12.8" style="fill: #000000;text-anchor:middle;font-family:monospace;font-style:normal;font-weight:normal" x="464.7" y="343.2">id</text>
    <line style="fill: none; fill-opacity:0; stroke-width: 2; stroke: #000000" x1="457" y1="348" x2="472.4" y2="348"/>
  </g>
  <g>
    <line style="fill: none; fill-opacity:0; stroke-width: 2; stroke: #000000" x1="490.027" y1="331.134" x2="510.82" y2="323.855"/>
    <polygon style="fill: #000000" points="517.899,321.377 510.113,329.4 510.82,323.855 506.809,319.962 "/>
    <polygon style="fill: none; fill-opacity:0; stroke-width: 2; stroke: #000000" points="517.899,321.377 510.113,329.4 510.82,323.855 506.809,319.962 "/>
  </g>
  <g>
    <line style="fill: none; fill-opacity:0; stroke-width: 2; stroke: #000000" x1="481.169" y1="301.678" x2="512.006" y2="305.385"/>
    <polygon style="fill: #000000" points="519.453,306.28 508.927,310.051 512.006,305.385 510.121,300.122 "/>
    <polygon style="fill: none; fill-opacity:0; stroke-width: 2; stroke: #000000" points="519.453,306.28 508.927,310.051 512.006,305.385 510.121,300.122 "/>
  </g>
  <g>
    <line style="fill: none; fill-opacity:0; stroke-width: 2; stroke: #000000" x1="516.943" y1="267.124" x2="529.605" y2="283.351"/>
    <polygon style="fill: #000000" points="534.219,289.264 524.125,284.456 529.605,283.351 532.009,278.304 "/>
    <polygon style="fill: none; fill-opacity:0; stroke-width: 2; stroke: #000000" points="534.219,289.264 524.125,284.456 529.605,283.351 532.009,278.304 "/>
  </g>
  <g>
    <ellipse style="fill: #ffffff" cx="785.7" cy="227" rx="27.7" ry="18"/>
    <ellipse style="fill: none; fill-opacity:0; stroke-width: 2; stroke: #000000" cx="785.7" cy="227" rx="27.7" ry="18"/>
    <text font-size="12.8" style="fill: #000000;text-anchor:middle;font-family:monospace;font-style:normal;font-weight:normal" x="785.7" y="230.2">id</text>
    <line style="fill: none; fill-opacity:0; stroke-width: 2; stroke: #000000" x1="778" y1="235" x2="793.4" y2="235"/>
  </g>
  <g>
    <line style="fill: none; fill-opacity:0; stroke-width: 2; stroke: #000000" x1="791.047" y1="245.618" x2="801.106" y2="280.644"/>
    <polygon style="fill: #000000" points="803.176,287.852 795.61,279.621 801.106,280.644 805.222,276.861 "/>
    <polygon style="fill: none; fill-opacity:0; stroke-width: 2; stroke: #000000" points="803.176,287.852 795.61,279.621 801.106,280.644 805.222,276.861 "/>
  </g>
  <g>
    <ellipse style="fill: #ffffff" cx="955.5" cy="255" rx="58.5" ry="18"/>
    <ellipse style="fill: none; fill-opacity:0; stroke-width: 2; stroke: #000000" cx="955.5" cy="255" rx="58.5" ry="18"/>
    <text font-size="12.8" style="fill: #000000;text-anchor:middle;font-family:monospace;font-style:normal;font-weight:normal" x="955.5" y="258.2">checkvalue</text>
  </g>
  <g>
    <line style="fill: none; fill-opacity:0; stroke-width: 2; stroke: #000000" x1="917.108" y1="269.176" x2="852.634" y2="292.981"/>
    <polygon style="fill: #000000" points="845.598,295.579 853.247,287.425 852.634,292.981 856.711,296.806 "/>
    <polygon style="fill: none; fill-opacity:0; stroke-width: 2; stroke: #000000" points="845.598,295.579 853.247,287.425 852.634,292.981 856.711,296.806 "/>
  </g>
  <g>
    <ellipse style="fill: #ffffff" cx="946.25" cy="308" rx="39.25" ry="18"/>
    <ellipse style="fill: none; fill-opacity:0; stroke-width: 2; stroke: #000000" cx="946.25" cy="308" rx="39.25" ry="18"/>
    <text font-size="12.8" style="fill: #000000;text-anchor:middle;font-family:monospace;font-style:normal;font-weight:normal" x="946.25" y="311.2">stamp</text>
  </g>
  <g>
    <line style="fill: none; fill-opacity:0; stroke-width: 2; stroke: #000000" x1="906.005" y1="308.294" x2="853.244" y2="308.679"/>
    <polygon style="fill: #000000" points="845.744,308.734 855.708,303.661 853.244,308.679 855.781,313.66 "/>
    <polygon style="fill: none; fill-opacity:0; stroke-width: 2; stroke: #000000" points="845.744,308.734 855.708,303.661 853.244,308.679 855.781,313.66 "/>
  </g>
  <g>
    <ellipse style="fill: #ffffff" cx="608.25" cy="242" rx="39.25" ry="18"/>
    <ellipse style="fill: none; fill-opacity:0; stroke-width: 2; stroke: #000000" cx="608.25" cy="242" rx="39.25" ry="18"/>
    <text font-size="12.8" style="fill: #000000;text-anchor:middle;font-family:monospace;font-style:normal;font-weight:normal" x="608.25" y="245.2">fname</text>
  </g>
  <g>
    <line style="fill: none; fill-opacity:0; stroke-width: 2; stroke: #000000" x1="593.562" y1="259.266" x2="572.873" y2="283.584"/>
    <polygon style="fill: #000000" points="568.013,289.296 570.685,278.44 572.873,283.584 578.301,284.92 "/>
    <polygon style="fill: none; fill-opacity:0; stroke-width: 2; stroke: #000000" points="568.013,289.296 570.685,278.44 572.873,283.584 578.301,284.92 "/>
  </g>
  <g>
    <ellipse style="fill: #ffffff" cx="881.5" cy="214" rx="58.5" ry="18"/>
    <ellipse style="fill: none; fill-opacity:0; stroke-width: 2; stroke: #000000" cx="881.5" cy="214" rx="58.5" ry="18"/>
    <text font-size="12.8" style="fill: #000000;text-anchor:middle;font-family:monospace;font-style:normal;font-weight:normal" x="881.5" y="217.2">checkgroup</text>
  </g>
  <g>
    <line style="fill: none; fill-opacity:0; stroke-width: 2; stroke: #000000" x1="867.583" y1="232.3" x2="829.573" y2="282.278"/>
    <polygon style="fill: #000000" points="825.032,288.248 827.106,277.262 829.573,282.278 835.066,283.315 "/>
    <polygon style="fill: none; fill-opacity:0; stroke-width: 2; stroke: #000000" points="825.032,288.248 827.106,277.262 829.573,282.278 835.066,283.315 "/>
  </g>
  <text font-size="12.8" style="fill: #000000;text-anchor:start;font-family:sans-serif;font-style:normal;font-weight:normal" x="452" y="136">
    <tspan x="452" y="136"></tspan>
  </text>
  <g>
    <ellipse style="fill: #ffffff" cx="499.25" cy="408" rx="39.25" ry="18"/>
    <ellipse style="fill: none; fill-opacity:0; stroke-width: 2; stroke: #000000" cx="499.25" cy="408" rx="39.25" ry="18"/>
    <text font-size="12.8" style="fill: #000000;text-anchor:middle;font-family:monospace;font-style:normal;font-weight:normal" x="499.25" y="411.2">sname</text>
  </g>
  <g>
    <line style="fill: none; fill-opacity:0; stroke-width: 2; stroke: #000000" x1="499.25" y1="390" x2="533.011" y2="337.197"/>
    <polygon style="fill: #000000" points="537.051,330.878 535.877,341.997 533.011,337.197 527.452,336.61 "/>
    <polygon style="fill: none; fill-opacity:0; stroke-width: 2; stroke: #000000" points="537.051,330.878 535.877,341.997 533.011,337.197 527.452,336.61 "/>
  </g>
  <g>
    <ellipse style="fill: #ffffff" cx="600.25" cy="406" rx="39.25" ry="18"/>
    <ellipse style="fill: none; fill-opacity:0; stroke-width: 2; stroke: #000000" cx="600.25" cy="406" rx="39.25" ry="18"/>
    <text font-size="12.8" style="fill: #000000;text-anchor:middle;font-family:monospace;font-style:normal;font-weight:normal" x="600.25" y="409.2">admin</text>
  </g>
  <g>
    <line style="fill: none; fill-opacity:0; stroke-width: 2; stroke: #000000" x1="590.702" y1="387.613" x2="564.751" y2="337.637"/>
    <polygon style="fill: #000000" points="561.295,330.981 570.34,337.551 564.751,337.637 561.466,342.16 "/>
    <polygon style="fill: none; fill-opacity:0; stroke-width: 2; stroke: #000000" points="561.295,330.981 570.34,337.551 564.751,337.637 561.466,342.16 "/>
  </g>
</svg>
